<mxfile host="app.diagrams.net" modified="2022-01-30T16:24:10.097Z" agent="5.0 (Macintosh; Intel Mac OS X 10_14_6) AppleWebKit/537.36 (KHTML, like Gecko) Chrome/97.0.4692.99 Safari/537.36" etag="t31tbvURaWot27YXlEmq" version="15.2.5" type="github" pages="2">
  <diagram id="R2lEEEUBdFMjLlhIrx00" name="Request_DB">
    <mxGraphModel dx="1055" dy="1671" grid="1" gridSize="10" guides="1" tooltips="1" connect="1" arrows="1" fold="1" page="1" pageScale="1" pageWidth="850" pageHeight="1100" math="0" shadow="0" extFonts="Permanent Marker^https://fonts.googleapis.com/css?family=Permanent+Marker">
      <root>
        <mxCell id="0" />
        <mxCell id="1" parent="0" />
        <mxCell id="1E_amU9lJk35ueEb-XG3-1" value="Product" style="shape=table;startSize=30;container=1;collapsible=1;childLayout=tableLayout;fixedRows=1;rowLines=0;fontStyle=1;align=center;resizeLast=1;" vertex="1" parent="1">
          <mxGeometry x="60" y="100" width="180" height="210" as="geometry" />
        </mxCell>
        <mxCell id="1E_amU9lJk35ueEb-XG3-2" value="" style="shape=partialRectangle;collapsible=0;dropTarget=0;pointerEvents=0;fillColor=none;top=0;left=0;bottom=1;right=0;points=[[0,0.5],[1,0.5]];portConstraint=eastwest;" vertex="1" parent="1E_amU9lJk35ueEb-XG3-1">
          <mxGeometry y="30" width="180" height="30" as="geometry" />
        </mxCell>
        <mxCell id="1E_amU9lJk35ueEb-XG3-3" value="PK" style="shape=partialRectangle;connectable=0;fillColor=none;top=0;left=0;bottom=0;right=0;fontStyle=1;overflow=hidden;" vertex="1" parent="1E_amU9lJk35ueEb-XG3-2">
          <mxGeometry width="30" height="30" as="geometry" />
        </mxCell>
        <mxCell id="1E_amU9lJk35ueEb-XG3-4" value="ProductId" style="shape=partialRectangle;connectable=0;fillColor=none;top=0;left=0;bottom=0;right=0;align=left;spacingLeft=6;fontStyle=5;overflow=hidden;" vertex="1" parent="1E_amU9lJk35ueEb-XG3-2">
          <mxGeometry x="30" width="150" height="30" as="geometry" />
        </mxCell>
        <mxCell id="1E_amU9lJk35ueEb-XG3-5" value="" style="shape=partialRectangle;collapsible=0;dropTarget=0;pointerEvents=0;fillColor=none;top=0;left=0;bottom=0;right=0;points=[[0,0.5],[1,0.5]];portConstraint=eastwest;" vertex="1" parent="1E_amU9lJk35ueEb-XG3-1">
          <mxGeometry y="60" width="180" height="30" as="geometry" />
        </mxCell>
        <mxCell id="1E_amU9lJk35ueEb-XG3-6" value="" style="shape=partialRectangle;connectable=0;fillColor=none;top=0;left=0;bottom=0;right=0;editable=1;overflow=hidden;" vertex="1" parent="1E_amU9lJk35ueEb-XG3-5">
          <mxGeometry width="30" height="30" as="geometry" />
        </mxCell>
        <mxCell id="1E_amU9lJk35ueEb-XG3-7" value="Product_name" style="shape=partialRectangle;connectable=0;fillColor=none;top=0;left=0;bottom=0;right=0;align=left;spacingLeft=6;overflow=hidden;" vertex="1" parent="1E_amU9lJk35ueEb-XG3-5">
          <mxGeometry x="30" width="150" height="30" as="geometry" />
        </mxCell>
        <mxCell id="1E_amU9lJk35ueEb-XG3-8" value="" style="shape=partialRectangle;collapsible=0;dropTarget=0;pointerEvents=0;fillColor=none;top=0;left=0;bottom=0;right=0;points=[[0,0.5],[1,0.5]];portConstraint=eastwest;" vertex="1" parent="1E_amU9lJk35ueEb-XG3-1">
          <mxGeometry y="90" width="180" height="30" as="geometry" />
        </mxCell>
        <mxCell id="1E_amU9lJk35ueEb-XG3-9" value="" style="shape=partialRectangle;connectable=0;fillColor=none;top=0;left=0;bottom=0;right=0;editable=1;overflow=hidden;" vertex="1" parent="1E_amU9lJk35ueEb-XG3-8">
          <mxGeometry width="30" height="30" as="geometry" />
        </mxCell>
        <mxCell id="1E_amU9lJk35ueEb-XG3-10" value="Createdate" style="shape=partialRectangle;connectable=0;fillColor=none;top=0;left=0;bottom=0;right=0;align=left;spacingLeft=6;overflow=hidden;" vertex="1" parent="1E_amU9lJk35ueEb-XG3-8">
          <mxGeometry x="30" width="150" height="30" as="geometry" />
        </mxCell>
        <mxCell id="1E_amU9lJk35ueEb-XG3-11" value="" style="shape=partialRectangle;collapsible=0;dropTarget=0;pointerEvents=0;fillColor=none;top=0;left=0;bottom=0;right=0;points=[[0,0.5],[1,0.5]];portConstraint=eastwest;" vertex="1" parent="1E_amU9lJk35ueEb-XG3-1">
          <mxGeometry y="120" width="180" height="30" as="geometry" />
        </mxCell>
        <mxCell id="1E_amU9lJk35ueEb-XG3-12" value="" style="shape=partialRectangle;connectable=0;fillColor=none;top=0;left=0;bottom=0;right=0;editable=1;overflow=hidden;" vertex="1" parent="1E_amU9lJk35ueEb-XG3-11">
          <mxGeometry width="30" height="30" as="geometry" />
        </mxCell>
        <mxCell id="1E_amU9lJk35ueEb-XG3-13" value="Is_Status" style="shape=partialRectangle;connectable=0;fillColor=none;top=0;left=0;bottom=0;right=0;align=left;spacingLeft=6;overflow=hidden;" vertex="1" parent="1E_amU9lJk35ueEb-XG3-11">
          <mxGeometry x="30" width="150" height="30" as="geometry" />
        </mxCell>
        <mxCell id="1E_amU9lJk35ueEb-XG3-17" value="" style="shape=partialRectangle;collapsible=0;dropTarget=0;pointerEvents=0;fillColor=none;top=0;left=0;bottom=0;right=0;points=[[0,0.5],[1,0.5]];portConstraint=eastwest;" vertex="1" parent="1">
          <mxGeometry x="60" y="250" width="180" height="30" as="geometry" />
        </mxCell>
        <mxCell id="1E_amU9lJk35ueEb-XG3-18" value="" style="shape=partialRectangle;connectable=0;fillColor=none;top=0;left=0;bottom=0;right=0;editable=1;overflow=hidden;" vertex="1" parent="1E_amU9lJk35ueEb-XG3-17">
          <mxGeometry width="30" height="30" as="geometry" />
        </mxCell>
        <mxCell id="1E_amU9lJk35ueEb-XG3-19" value="Product_type" style="shape=partialRectangle;connectable=0;fillColor=none;top=0;left=0;bottom=0;right=0;align=left;spacingLeft=6;overflow=hidden;" vertex="1" parent="1E_amU9lJk35ueEb-XG3-17">
          <mxGeometry x="30" width="150" height="30" as="geometry" />
        </mxCell>
        <mxCell id="1E_amU9lJk35ueEb-XG3-22" value="" style="shape=partialRectangle;collapsible=0;dropTarget=0;pointerEvents=0;fillColor=none;top=0;left=0;bottom=0;right=0;points=[[0,0.5],[1,0.5]];portConstraint=eastwest;" vertex="1" parent="1">
          <mxGeometry x="60" y="280" width="180" height="30" as="geometry" />
        </mxCell>
        <mxCell id="1E_amU9lJk35ueEb-XG3-23" value="" style="shape=partialRectangle;connectable=0;fillColor=none;top=0;left=0;bottom=0;right=0;editable=1;overflow=hidden;" vertex="1" parent="1E_amU9lJk35ueEb-XG3-22">
          <mxGeometry width="30" height="30" as="geometry" />
        </mxCell>
        <mxCell id="1E_amU9lJk35ueEb-XG3-24" value="Product_code" style="shape=partialRectangle;connectable=0;fillColor=none;top=0;left=0;bottom=0;right=0;align=left;spacingLeft=6;overflow=hidden;" vertex="1" parent="1E_amU9lJk35ueEb-XG3-22">
          <mxGeometry x="30" width="150" height="30" as="geometry" />
        </mxCell>
        <mxCell id="1E_amU9lJk35ueEb-XG3-25" value="Twilio" style="shape=table;startSize=30;container=1;collapsible=1;childLayout=tableLayout;fixedRows=1;rowLines=0;fontStyle=1;align=center;resizeLast=1;" vertex="1" parent="1">
          <mxGeometry x="380" y="-70" width="220" height="300" as="geometry" />
        </mxCell>
        <mxCell id="1E_amU9lJk35ueEb-XG3-26" value="" style="shape=partialRectangle;collapsible=0;dropTarget=0;pointerEvents=0;fillColor=none;top=0;left=0;bottom=1;right=0;points=[[0,0.5],[1,0.5]];portConstraint=eastwest;" vertex="1" parent="1E_amU9lJk35ueEb-XG3-25">
          <mxGeometry y="30" width="220" height="30" as="geometry" />
        </mxCell>
        <mxCell id="1E_amU9lJk35ueEb-XG3-27" value="PK" style="shape=partialRectangle;connectable=0;fillColor=none;top=0;left=0;bottom=0;right=0;fontStyle=1;overflow=hidden;" vertex="1" parent="1E_amU9lJk35ueEb-XG3-26">
          <mxGeometry width="30" height="30" as="geometry" />
        </mxCell>
        <mxCell id="1E_amU9lJk35ueEb-XG3-28" value="request_id" style="shape=partialRectangle;connectable=0;fillColor=none;top=0;left=0;bottom=0;right=0;align=left;spacingLeft=6;fontStyle=5;overflow=hidden;" vertex="1" parent="1E_amU9lJk35ueEb-XG3-26">
          <mxGeometry x="30" width="190" height="30" as="geometry" />
        </mxCell>
        <mxCell id="1E_amU9lJk35ueEb-XG3-29" value="" style="shape=partialRectangle;collapsible=0;dropTarget=0;pointerEvents=0;fillColor=none;top=0;left=0;bottom=0;right=0;points=[[0,0.5],[1,0.5]];portConstraint=eastwest;" vertex="1" parent="1E_amU9lJk35ueEb-XG3-25">
          <mxGeometry y="60" width="220" height="30" as="geometry" />
        </mxCell>
        <mxCell id="1E_amU9lJk35ueEb-XG3-30" value="" style="shape=partialRectangle;connectable=0;fillColor=none;top=0;left=0;bottom=0;right=0;editable=1;overflow=hidden;" vertex="1" parent="1E_amU9lJk35ueEb-XG3-29">
          <mxGeometry width="30" height="30" as="geometry" />
        </mxCell>
        <mxCell id="1E_amU9lJk35ueEb-XG3-31" value="user_id" style="shape=partialRectangle;connectable=0;fillColor=none;top=0;left=0;bottom=0;right=0;align=left;spacingLeft=6;overflow=hidden;" vertex="1" parent="1E_amU9lJk35ueEb-XG3-29">
          <mxGeometry x="30" width="190" height="30" as="geometry" />
        </mxCell>
        <mxCell id="1E_amU9lJk35ueEb-XG3-32" value="" style="shape=partialRectangle;collapsible=0;dropTarget=0;pointerEvents=0;fillColor=none;top=0;left=0;bottom=0;right=0;points=[[0,0.5],[1,0.5]];portConstraint=eastwest;" vertex="1" parent="1E_amU9lJk35ueEb-XG3-25">
          <mxGeometry y="90" width="220" height="30" as="geometry" />
        </mxCell>
        <mxCell id="1E_amU9lJk35ueEb-XG3-33" value="" style="shape=partialRectangle;connectable=0;fillColor=none;top=0;left=0;bottom=0;right=0;editable=1;overflow=hidden;" vertex="1" parent="1E_amU9lJk35ueEb-XG3-32">
          <mxGeometry width="30" height="30" as="geometry" />
        </mxCell>
        <mxCell id="1E_amU9lJk35ueEb-XG3-34" value="product_id" style="shape=partialRectangle;connectable=0;fillColor=none;top=0;left=0;bottom=0;right=0;align=left;spacingLeft=6;overflow=hidden;" vertex="1" parent="1E_amU9lJk35ueEb-XG3-32">
          <mxGeometry x="30" width="190" height="30" as="geometry" />
        </mxCell>
        <mxCell id="1E_amU9lJk35ueEb-XG3-35" value="" style="shape=partialRectangle;collapsible=0;dropTarget=0;pointerEvents=0;fillColor=none;top=0;left=0;bottom=0;right=0;points=[[0,0.5],[1,0.5]];portConstraint=eastwest;" vertex="1" parent="1E_amU9lJk35ueEb-XG3-25">
          <mxGeometry y="120" width="220" height="30" as="geometry" />
        </mxCell>
        <mxCell id="1E_amU9lJk35ueEb-XG3-36" value="" style="shape=partialRectangle;connectable=0;fillColor=none;top=0;left=0;bottom=0;right=0;editable=1;overflow=hidden;" vertex="1" parent="1E_amU9lJk35ueEb-XG3-35">
          <mxGeometry width="30" height="30" as="geometry" />
        </mxCell>
        <mxCell id="1E_amU9lJk35ueEb-XG3-37" value="create_date_time" style="shape=partialRectangle;connectable=0;fillColor=none;top=0;left=0;bottom=0;right=0;align=left;spacingLeft=6;overflow=hidden;" vertex="1" parent="1E_amU9lJk35ueEb-XG3-35">
          <mxGeometry x="30" width="190" height="30" as="geometry" />
        </mxCell>
        <mxCell id="1E_amU9lJk35ueEb-XG3-39" value="To" style="shape=partialRectangle;connectable=0;fillColor=none;top=0;left=0;bottom=0;right=0;align=left;spacingLeft=6;overflow=hidden;" vertex="1" parent="1">
          <mxGeometry x="410" y="80" width="190" height="30" as="geometry" />
        </mxCell>
        <mxCell id="1E_amU9lJk35ueEb-XG3-40" value="From " style="shape=partialRectangle;connectable=0;fillColor=none;top=0;left=0;bottom=0;right=0;align=left;spacingLeft=6;overflow=hidden;" vertex="1" parent="1">
          <mxGeometry x="410" y="120" width="190" height="30" as="geometry" />
        </mxCell>
        <mxCell id="1E_amU9lJk35ueEb-XG3-95" value="Sender" style="shape=partialRectangle;connectable=0;fillColor=none;top=0;left=0;bottom=0;right=0;align=left;spacingLeft=6;overflow=hidden;" vertex="1" parent="1">
          <mxGeometry x="410" y="160" width="190" height="30" as="geometry" />
        </mxCell>
        <mxCell id="1E_amU9lJk35ueEb-XG3-96" value="Call_back_URL" style="shape=partialRectangle;connectable=0;fillColor=none;top=0;left=0;bottom=0;right=0;align=left;spacingLeft=6;overflow=hidden;" vertex="1" parent="1">
          <mxGeometry x="410" y="200" width="190" height="30" as="geometry" />
        </mxCell>
        <mxCell id="1E_amU9lJk35ueEb-XG3-97" value="Nexmo" style="shape=table;startSize=30;container=1;collapsible=1;childLayout=tableLayout;fixedRows=1;rowLines=0;fontStyle=1;align=center;resizeLast=1;" vertex="1" parent="1">
          <mxGeometry x="500" y="350" width="220" height="300" as="geometry" />
        </mxCell>
        <mxCell id="1E_amU9lJk35ueEb-XG3-98" value="" style="shape=partialRectangle;collapsible=0;dropTarget=0;pointerEvents=0;fillColor=none;top=0;left=0;bottom=1;right=0;points=[[0,0.5],[1,0.5]];portConstraint=eastwest;" vertex="1" parent="1E_amU9lJk35ueEb-XG3-97">
          <mxGeometry y="30" width="220" height="30" as="geometry" />
        </mxCell>
        <mxCell id="1E_amU9lJk35ueEb-XG3-99" value="PK" style="shape=partialRectangle;connectable=0;fillColor=none;top=0;left=0;bottom=0;right=0;fontStyle=1;overflow=hidden;" vertex="1" parent="1E_amU9lJk35ueEb-XG3-98">
          <mxGeometry width="30" height="30" as="geometry" />
        </mxCell>
        <mxCell id="1E_amU9lJk35ueEb-XG3-100" value="request_id" style="shape=partialRectangle;connectable=0;fillColor=none;top=0;left=0;bottom=0;right=0;align=left;spacingLeft=6;fontStyle=5;overflow=hidden;" vertex="1" parent="1E_amU9lJk35ueEb-XG3-98">
          <mxGeometry x="30" width="190" height="30" as="geometry" />
        </mxCell>
        <mxCell id="1E_amU9lJk35ueEb-XG3-101" value="" style="shape=partialRectangle;collapsible=0;dropTarget=0;pointerEvents=0;fillColor=none;top=0;left=0;bottom=0;right=0;points=[[0,0.5],[1,0.5]];portConstraint=eastwest;" vertex="1" parent="1E_amU9lJk35ueEb-XG3-97">
          <mxGeometry y="60" width="220" height="30" as="geometry" />
        </mxCell>
        <mxCell id="1E_amU9lJk35ueEb-XG3-102" value="" style="shape=partialRectangle;connectable=0;fillColor=none;top=0;left=0;bottom=0;right=0;editable=1;overflow=hidden;" vertex="1" parent="1E_amU9lJk35ueEb-XG3-101">
          <mxGeometry width="30" height="30" as="geometry" />
        </mxCell>
        <mxCell id="1E_amU9lJk35ueEb-XG3-103" value="user_id" style="shape=partialRectangle;connectable=0;fillColor=none;top=0;left=0;bottom=0;right=0;align=left;spacingLeft=6;overflow=hidden;" vertex="1" parent="1E_amU9lJk35ueEb-XG3-101">
          <mxGeometry x="30" width="190" height="30" as="geometry" />
        </mxCell>
        <mxCell id="1E_amU9lJk35ueEb-XG3-104" value="" style="shape=partialRectangle;collapsible=0;dropTarget=0;pointerEvents=0;fillColor=none;top=0;left=0;bottom=0;right=0;points=[[0,0.5],[1,0.5]];portConstraint=eastwest;" vertex="1" parent="1E_amU9lJk35ueEb-XG3-97">
          <mxGeometry y="90" width="220" height="30" as="geometry" />
        </mxCell>
        <mxCell id="1E_amU9lJk35ueEb-XG3-105" value="" style="shape=partialRectangle;connectable=0;fillColor=none;top=0;left=0;bottom=0;right=0;editable=1;overflow=hidden;" vertex="1" parent="1E_amU9lJk35ueEb-XG3-104">
          <mxGeometry width="30" height="30" as="geometry" />
        </mxCell>
        <mxCell id="1E_amU9lJk35ueEb-XG3-106" value="product_id" style="shape=partialRectangle;connectable=0;fillColor=none;top=0;left=0;bottom=0;right=0;align=left;spacingLeft=6;overflow=hidden;" vertex="1" parent="1E_amU9lJk35ueEb-XG3-104">
          <mxGeometry x="30" width="190" height="30" as="geometry" />
        </mxCell>
        <mxCell id="1E_amU9lJk35ueEb-XG3-107" value="" style="shape=partialRectangle;collapsible=0;dropTarget=0;pointerEvents=0;fillColor=none;top=0;left=0;bottom=0;right=0;points=[[0,0.5],[1,0.5]];portConstraint=eastwest;" vertex="1" parent="1E_amU9lJk35ueEb-XG3-97">
          <mxGeometry y="120" width="220" height="30" as="geometry" />
        </mxCell>
        <mxCell id="1E_amU9lJk35ueEb-XG3-108" value="" style="shape=partialRectangle;connectable=0;fillColor=none;top=0;left=0;bottom=0;right=0;editable=1;overflow=hidden;" vertex="1" parent="1E_amU9lJk35ueEb-XG3-107">
          <mxGeometry width="30" height="30" as="geometry" />
        </mxCell>
        <mxCell id="1E_amU9lJk35ueEb-XG3-109" value="create_date_time" style="shape=partialRectangle;connectable=0;fillColor=none;top=0;left=0;bottom=0;right=0;align=left;spacingLeft=6;overflow=hidden;" vertex="1" parent="1E_amU9lJk35ueEb-XG3-107">
          <mxGeometry x="30" width="190" height="30" as="geometry" />
        </mxCell>
        <mxCell id="1E_amU9lJk35ueEb-XG3-110" value="To" style="shape=partialRectangle;connectable=0;fillColor=none;top=0;left=0;bottom=0;right=0;align=left;spacingLeft=6;overflow=hidden;" vertex="1" parent="1">
          <mxGeometry x="530" y="510" width="190" height="30" as="geometry" />
        </mxCell>
        <mxCell id="1E_amU9lJk35ueEb-XG3-111" value="Sender" style="shape=partialRectangle;connectable=0;fillColor=none;top=0;left=0;bottom=0;right=0;align=left;spacingLeft=6;overflow=hidden;" vertex="1" parent="1">
          <mxGeometry x="530" y="550" width="190" height="30" as="geometry" />
        </mxCell>
        <mxCell id="1E_amU9lJk35ueEb-XG3-112" value="Call_back_URL" style="shape=partialRectangle;connectable=0;fillColor=none;top=0;left=0;bottom=0;right=0;align=left;spacingLeft=6;overflow=hidden;" vertex="1" parent="1">
          <mxGeometry x="530" y="590" width="190" height="30" as="geometry" />
        </mxCell>
        <mxCell id="1E_amU9lJk35ueEb-XG3-113" value="Vonage" style="shape=table;startSize=30;container=1;collapsible=1;childLayout=tableLayout;fixedRows=1;rowLines=0;fontStyle=1;align=center;resizeLast=1;" vertex="1" parent="1">
          <mxGeometry x="150" y="415" width="220" height="300" as="geometry" />
        </mxCell>
        <mxCell id="1E_amU9lJk35ueEb-XG3-114" value="" style="shape=partialRectangle;collapsible=0;dropTarget=0;pointerEvents=0;fillColor=none;top=0;left=0;bottom=1;right=0;points=[[0,0.5],[1,0.5]];portConstraint=eastwest;" vertex="1" parent="1E_amU9lJk35ueEb-XG3-113">
          <mxGeometry y="30" width="220" height="30" as="geometry" />
        </mxCell>
        <mxCell id="1E_amU9lJk35ueEb-XG3-115" value="PK" style="shape=partialRectangle;connectable=0;fillColor=none;top=0;left=0;bottom=0;right=0;fontStyle=1;overflow=hidden;" vertex="1" parent="1E_amU9lJk35ueEb-XG3-114">
          <mxGeometry width="30" height="30" as="geometry" />
        </mxCell>
        <mxCell id="1E_amU9lJk35ueEb-XG3-116" value="request_id" style="shape=partialRectangle;connectable=0;fillColor=none;top=0;left=0;bottom=0;right=0;align=left;spacingLeft=6;fontStyle=5;overflow=hidden;" vertex="1" parent="1E_amU9lJk35ueEb-XG3-114">
          <mxGeometry x="30" width="190" height="30" as="geometry" />
        </mxCell>
        <mxCell id="1E_amU9lJk35ueEb-XG3-117" value="" style="shape=partialRectangle;collapsible=0;dropTarget=0;pointerEvents=0;fillColor=none;top=0;left=0;bottom=0;right=0;points=[[0,0.5],[1,0.5]];portConstraint=eastwest;" vertex="1" parent="1E_amU9lJk35ueEb-XG3-113">
          <mxGeometry y="60" width="220" height="30" as="geometry" />
        </mxCell>
        <mxCell id="1E_amU9lJk35ueEb-XG3-118" value="" style="shape=partialRectangle;connectable=0;fillColor=none;top=0;left=0;bottom=0;right=0;editable=1;overflow=hidden;" vertex="1" parent="1E_amU9lJk35ueEb-XG3-117">
          <mxGeometry width="30" height="30" as="geometry" />
        </mxCell>
        <mxCell id="1E_amU9lJk35ueEb-XG3-119" value="user_id" style="shape=partialRectangle;connectable=0;fillColor=none;top=0;left=0;bottom=0;right=0;align=left;spacingLeft=6;overflow=hidden;" vertex="1" parent="1E_amU9lJk35ueEb-XG3-117">
          <mxGeometry x="30" width="190" height="30" as="geometry" />
        </mxCell>
        <mxCell id="1E_amU9lJk35ueEb-XG3-120" value="" style="shape=partialRectangle;collapsible=0;dropTarget=0;pointerEvents=0;fillColor=none;top=0;left=0;bottom=0;right=0;points=[[0,0.5],[1,0.5]];portConstraint=eastwest;" vertex="1" parent="1E_amU9lJk35ueEb-XG3-113">
          <mxGeometry y="90" width="220" height="30" as="geometry" />
        </mxCell>
        <mxCell id="1E_amU9lJk35ueEb-XG3-121" value="" style="shape=partialRectangle;connectable=0;fillColor=none;top=0;left=0;bottom=0;right=0;editable=1;overflow=hidden;" vertex="1" parent="1E_amU9lJk35ueEb-XG3-120">
          <mxGeometry width="30" height="30" as="geometry" />
        </mxCell>
        <mxCell id="1E_amU9lJk35ueEb-XG3-122" value="product_id" style="shape=partialRectangle;connectable=0;fillColor=none;top=0;left=0;bottom=0;right=0;align=left;spacingLeft=6;overflow=hidden;" vertex="1" parent="1E_amU9lJk35ueEb-XG3-120">
          <mxGeometry x="30" width="190" height="30" as="geometry" />
        </mxCell>
        <mxCell id="1E_amU9lJk35ueEb-XG3-123" value="" style="shape=partialRectangle;collapsible=0;dropTarget=0;pointerEvents=0;fillColor=none;top=0;left=0;bottom=0;right=0;points=[[0,0.5],[1,0.5]];portConstraint=eastwest;" vertex="1" parent="1E_amU9lJk35ueEb-XG3-113">
          <mxGeometry y="120" width="220" height="30" as="geometry" />
        </mxCell>
        <mxCell id="1E_amU9lJk35ueEb-XG3-124" value="" style="shape=partialRectangle;connectable=0;fillColor=none;top=0;left=0;bottom=0;right=0;editable=1;overflow=hidden;" vertex="1" parent="1E_amU9lJk35ueEb-XG3-123">
          <mxGeometry width="30" height="30" as="geometry" />
        </mxCell>
        <mxCell id="1E_amU9lJk35ueEb-XG3-125" value="create_date_time" style="shape=partialRectangle;connectable=0;fillColor=none;top=0;left=0;bottom=0;right=0;align=left;spacingLeft=6;overflow=hidden;" vertex="1" parent="1E_amU9lJk35ueEb-XG3-123">
          <mxGeometry x="30" width="190" height="30" as="geometry" />
        </mxCell>
        <mxCell id="1E_amU9lJk35ueEb-XG3-126" value="To" style="shape=partialRectangle;connectable=0;fillColor=none;top=0;left=0;bottom=0;right=0;align=left;spacingLeft=6;overflow=hidden;" vertex="1" parent="1">
          <mxGeometry x="180" y="570" width="190" height="30" as="geometry" />
        </mxCell>
        <mxCell id="1E_amU9lJk35ueEb-XG3-127" value="Sender" style="shape=partialRectangle;connectable=0;fillColor=none;top=0;left=0;bottom=0;right=0;align=left;spacingLeft=6;overflow=hidden;" vertex="1" parent="1">
          <mxGeometry x="180" y="610" width="190" height="30" as="geometry" />
        </mxCell>
        <mxCell id="1E_amU9lJk35ueEb-XG3-128" value="Call_back_URL" style="shape=partialRectangle;connectable=0;fillColor=none;top=0;left=0;bottom=0;right=0;align=left;spacingLeft=6;overflow=hidden;" vertex="1" parent="1">
          <mxGeometry x="180" y="650" width="190" height="30" as="geometry" />
        </mxCell>
        <mxCell id="1E_amU9lJk35ueEb-XG3-129" style="edgeStyle=orthogonalEdgeStyle;rounded=0;orthogonalLoop=1;jettySize=auto;html=1;exitX=1;exitY=0.5;exitDx=0;exitDy=0;entryX=-0.005;entryY=0.861;entryDx=0;entryDy=0;entryPerimeter=0;" edge="1" parent="1" source="1E_amU9lJk35ueEb-XG3-2" target="1E_amU9lJk35ueEb-XG3-32">
          <mxGeometry relative="1" as="geometry" />
        </mxCell>
        <mxCell id="1E_amU9lJk35ueEb-XG3-132" style="edgeStyle=orthogonalEdgeStyle;rounded=0;orthogonalLoop=1;jettySize=auto;html=1;exitX=1;exitY=0.5;exitDx=0;exitDy=0;entryX=0;entryY=0.5;entryDx=0;entryDy=0;" edge="1" parent="1" source="1E_amU9lJk35ueEb-XG3-2" target="1E_amU9lJk35ueEb-XG3-104">
          <mxGeometry relative="1" as="geometry" />
        </mxCell>
        <mxCell id="1E_amU9lJk35ueEb-XG3-133" style="edgeStyle=orthogonalEdgeStyle;rounded=0;orthogonalLoop=1;jettySize=auto;html=1;entryX=-0.005;entryY=0.794;entryDx=0;entryDy=0;entryPerimeter=0;" edge="1" parent="1" source="1E_amU9lJk35ueEb-XG3-2" target="1E_amU9lJk35ueEb-XG3-120">
          <mxGeometry relative="1" as="geometry" />
        </mxCell>
      </root>
    </mxGraphModel>
  </diagram>
  <diagram id="PAgWWGnJdVIflLsCnFWn" name="Page-2">
    <mxGraphModel dx="1055" dy="571" grid="1" gridSize="10" guides="1" tooltips="1" connect="1" arrows="1" fold="1" page="1" pageScale="1" pageWidth="850" pageHeight="1100" math="0" shadow="0">
      <root>
        <mxCell id="spAhNgwJLfB4B6tivdcX-0" />
        <mxCell id="spAhNgwJLfB4B6tivdcX-1" parent="spAhNgwJLfB4B6tivdcX-0" />
        <mxCell id="aKX1gy-J0APryohUUYob-0" value="Twilio_Response" style="shape=table;startSize=30;container=1;collapsible=1;childLayout=tableLayout;fixedRows=1;rowLines=0;fontStyle=1;align=center;resizeLast=1;" vertex="1" parent="spAhNgwJLfB4B6tivdcX-1">
          <mxGeometry x="100" y="60" width="180" height="160" as="geometry" />
        </mxCell>
        <mxCell id="aKX1gy-J0APryohUUYob-1" value="" style="shape=partialRectangle;collapsible=0;dropTarget=0;pointerEvents=0;fillColor=none;top=0;left=0;bottom=1;right=0;points=[[0,0.5],[1,0.5]];portConstraint=eastwest;" vertex="1" parent="aKX1gy-J0APryohUUYob-0">
          <mxGeometry y="30" width="180" height="30" as="geometry" />
        </mxCell>
        <mxCell id="aKX1gy-J0APryohUUYob-2" value="PK" style="shape=partialRectangle;connectable=0;fillColor=none;top=0;left=0;bottom=0;right=0;fontStyle=1;overflow=hidden;" vertex="1" parent="aKX1gy-J0APryohUUYob-1">
          <mxGeometry width="30" height="30" as="geometry" />
        </mxCell>
        <mxCell id="aKX1gy-J0APryohUUYob-3" value="UniqueID" style="shape=partialRectangle;connectable=0;fillColor=none;top=0;left=0;bottom=0;right=0;align=left;spacingLeft=6;fontStyle=5;overflow=hidden;" vertex="1" parent="aKX1gy-J0APryohUUYob-1">
          <mxGeometry x="30" width="150" height="30" as="geometry" />
        </mxCell>
        <mxCell id="aKX1gy-J0APryohUUYob-4" value="" style="shape=partialRectangle;collapsible=0;dropTarget=0;pointerEvents=0;fillColor=none;top=0;left=0;bottom=0;right=0;points=[[0,0.5],[1,0.5]];portConstraint=eastwest;" vertex="1" parent="aKX1gy-J0APryohUUYob-0">
          <mxGeometry y="60" width="180" height="30" as="geometry" />
        </mxCell>
        <mxCell id="aKX1gy-J0APryohUUYob-5" value="" style="shape=partialRectangle;connectable=0;fillColor=none;top=0;left=0;bottom=0;right=0;editable=1;overflow=hidden;" vertex="1" parent="aKX1gy-J0APryohUUYob-4">
          <mxGeometry width="30" height="30" as="geometry" />
        </mxCell>
        <mxCell id="aKX1gy-J0APryohUUYob-6" value="Row 1" style="shape=partialRectangle;connectable=0;fillColor=none;top=0;left=0;bottom=0;right=0;align=left;spacingLeft=6;overflow=hidden;" vertex="1" parent="aKX1gy-J0APryohUUYob-4">
          <mxGeometry x="30" width="150" height="30" as="geometry" />
        </mxCell>
        <mxCell id="aKX1gy-J0APryohUUYob-7" value="" style="shape=partialRectangle;collapsible=0;dropTarget=0;pointerEvents=0;fillColor=none;top=0;left=0;bottom=0;right=0;points=[[0,0.5],[1,0.5]];portConstraint=eastwest;" vertex="1" parent="aKX1gy-J0APryohUUYob-0">
          <mxGeometry y="90" width="180" height="30" as="geometry" />
        </mxCell>
        <mxCell id="aKX1gy-J0APryohUUYob-8" value="" style="shape=partialRectangle;connectable=0;fillColor=none;top=0;left=0;bottom=0;right=0;editable=1;overflow=hidden;" vertex="1" parent="aKX1gy-J0APryohUUYob-7">
          <mxGeometry width="30" height="30" as="geometry" />
        </mxCell>
        <mxCell id="aKX1gy-J0APryohUUYob-9" value="Row 2" style="shape=partialRectangle;connectable=0;fillColor=none;top=0;left=0;bottom=0;right=0;align=left;spacingLeft=6;overflow=hidden;" vertex="1" parent="aKX1gy-J0APryohUUYob-7">
          <mxGeometry x="30" width="150" height="30" as="geometry" />
        </mxCell>
        <mxCell id="aKX1gy-J0APryohUUYob-10" value="" style="shape=partialRectangle;collapsible=0;dropTarget=0;pointerEvents=0;fillColor=none;top=0;left=0;bottom=0;right=0;points=[[0,0.5],[1,0.5]];portConstraint=eastwest;" vertex="1" parent="aKX1gy-J0APryohUUYob-0">
          <mxGeometry y="120" width="180" height="30" as="geometry" />
        </mxCell>
        <mxCell id="aKX1gy-J0APryohUUYob-11" value="" style="shape=partialRectangle;connectable=0;fillColor=none;top=0;left=0;bottom=0;right=0;editable=1;overflow=hidden;" vertex="1" parent="aKX1gy-J0APryohUUYob-10">
          <mxGeometry width="30" height="30" as="geometry" />
        </mxCell>
        <mxCell id="aKX1gy-J0APryohUUYob-12" value="Row 3" style="shape=partialRectangle;connectable=0;fillColor=none;top=0;left=0;bottom=0;right=0;align=left;spacingLeft=6;overflow=hidden;" vertex="1" parent="aKX1gy-J0APryohUUYob-10">
          <mxGeometry x="30" width="150" height="30" as="geometry" />
        </mxCell>
        <mxCell id="aKX1gy-J0APryohUUYob-13" value="Nexmo_response" style="shape=table;startSize=30;container=1;collapsible=1;childLayout=tableLayout;fixedRows=1;rowLines=0;fontStyle=1;align=center;resizeLast=1;" vertex="1" parent="spAhNgwJLfB4B6tivdcX-1">
          <mxGeometry x="500" y="60" width="180" height="170" as="geometry" />
        </mxCell>
        <mxCell id="aKX1gy-J0APryohUUYob-14" value="" style="shape=partialRectangle;collapsible=0;dropTarget=0;pointerEvents=0;fillColor=none;top=0;left=0;bottom=1;right=0;points=[[0,0.5],[1,0.5]];portConstraint=eastwest;" vertex="1" parent="aKX1gy-J0APryohUUYob-13">
          <mxGeometry y="30" width="180" height="40" as="geometry" />
        </mxCell>
        <mxCell id="aKX1gy-J0APryohUUYob-15" value="PK" style="shape=partialRectangle;connectable=0;fillColor=none;top=0;left=0;bottom=0;right=0;fontStyle=1;overflow=hidden;" vertex="1" parent="aKX1gy-J0APryohUUYob-14">
          <mxGeometry width="30" height="40" as="geometry" />
        </mxCell>
        <mxCell id="aKX1gy-J0APryohUUYob-16" value="UniqueID" style="shape=partialRectangle;connectable=0;fillColor=none;top=0;left=0;bottom=0;right=0;align=left;spacingLeft=6;fontStyle=5;overflow=hidden;" vertex="1" parent="aKX1gy-J0APryohUUYob-14">
          <mxGeometry x="30" width="150" height="40" as="geometry" />
        </mxCell>
        <mxCell id="aKX1gy-J0APryohUUYob-17" value="" style="shape=partialRectangle;collapsible=0;dropTarget=0;pointerEvents=0;fillColor=none;top=0;left=0;bottom=0;right=0;points=[[0,0.5],[1,0.5]];portConstraint=eastwest;" vertex="1" parent="aKX1gy-J0APryohUUYob-13">
          <mxGeometry y="70" width="180" height="30" as="geometry" />
        </mxCell>
        <mxCell id="aKX1gy-J0APryohUUYob-18" value="" style="shape=partialRectangle;connectable=0;fillColor=none;top=0;left=0;bottom=0;right=0;editable=1;overflow=hidden;" vertex="1" parent="aKX1gy-J0APryohUUYob-17">
          <mxGeometry width="30" height="30" as="geometry" />
        </mxCell>
        <mxCell id="aKX1gy-J0APryohUUYob-19" value="Row 1" style="shape=partialRectangle;connectable=0;fillColor=none;top=0;left=0;bottom=0;right=0;align=left;spacingLeft=6;overflow=hidden;" vertex="1" parent="aKX1gy-J0APryohUUYob-17">
          <mxGeometry x="30" width="150" height="30" as="geometry" />
        </mxCell>
        <mxCell id="aKX1gy-J0APryohUUYob-20" value="" style="shape=partialRectangle;collapsible=0;dropTarget=0;pointerEvents=0;fillColor=none;top=0;left=0;bottom=0;right=0;points=[[0,0.5],[1,0.5]];portConstraint=eastwest;" vertex="1" parent="aKX1gy-J0APryohUUYob-13">
          <mxGeometry y="100" width="180" height="30" as="geometry" />
        </mxCell>
        <mxCell id="aKX1gy-J0APryohUUYob-21" value="" style="shape=partialRectangle;connectable=0;fillColor=none;top=0;left=0;bottom=0;right=0;editable=1;overflow=hidden;" vertex="1" parent="aKX1gy-J0APryohUUYob-20">
          <mxGeometry width="30" height="30" as="geometry" />
        </mxCell>
        <mxCell id="aKX1gy-J0APryohUUYob-22" value="Row 2" style="shape=partialRectangle;connectable=0;fillColor=none;top=0;left=0;bottom=0;right=0;align=left;spacingLeft=6;overflow=hidden;" vertex="1" parent="aKX1gy-J0APryohUUYob-20">
          <mxGeometry x="30" width="150" height="30" as="geometry" />
        </mxCell>
        <mxCell id="aKX1gy-J0APryohUUYob-23" value="" style="shape=partialRectangle;collapsible=0;dropTarget=0;pointerEvents=0;fillColor=none;top=0;left=0;bottom=0;right=0;points=[[0,0.5],[1,0.5]];portConstraint=eastwest;" vertex="1" parent="aKX1gy-J0APryohUUYob-13">
          <mxGeometry y="130" width="180" height="30" as="geometry" />
        </mxCell>
        <mxCell id="aKX1gy-J0APryohUUYob-24" value="" style="shape=partialRectangle;connectable=0;fillColor=none;top=0;left=0;bottom=0;right=0;editable=1;overflow=hidden;" vertex="1" parent="aKX1gy-J0APryohUUYob-23">
          <mxGeometry width="30" height="30" as="geometry" />
        </mxCell>
        <mxCell id="aKX1gy-J0APryohUUYob-25" value="Row 3" style="shape=partialRectangle;connectable=0;fillColor=none;top=0;left=0;bottom=0;right=0;align=left;spacingLeft=6;overflow=hidden;" vertex="1" parent="aKX1gy-J0APryohUUYob-23">
          <mxGeometry x="30" width="150" height="30" as="geometry" />
        </mxCell>
        <mxCell id="aKX1gy-J0APryohUUYob-26" value="Vonage_Response" style="shape=table;startSize=30;container=1;collapsible=1;childLayout=tableLayout;fixedRows=1;rowLines=0;fontStyle=1;align=center;resizeLast=1;" vertex="1" parent="spAhNgwJLfB4B6tivdcX-1">
          <mxGeometry x="530" y="360" width="180" height="170" as="geometry" />
        </mxCell>
        <mxCell id="aKX1gy-J0APryohUUYob-27" value="" style="shape=partialRectangle;collapsible=0;dropTarget=0;pointerEvents=0;fillColor=none;top=0;left=0;bottom=1;right=0;points=[[0,0.5],[1,0.5]];portConstraint=eastwest;" vertex="1" parent="aKX1gy-J0APryohUUYob-26">
          <mxGeometry y="30" width="180" height="40" as="geometry" />
        </mxCell>
        <mxCell id="aKX1gy-J0APryohUUYob-28" value="PK" style="shape=partialRectangle;connectable=0;fillColor=none;top=0;left=0;bottom=0;right=0;fontStyle=1;overflow=hidden;" vertex="1" parent="aKX1gy-J0APryohUUYob-27">
          <mxGeometry width="30" height="40" as="geometry" />
        </mxCell>
        <mxCell id="aKX1gy-J0APryohUUYob-29" value="UniqueID" style="shape=partialRectangle;connectable=0;fillColor=none;top=0;left=0;bottom=0;right=0;align=left;spacingLeft=6;fontStyle=5;overflow=hidden;" vertex="1" parent="aKX1gy-J0APryohUUYob-27">
          <mxGeometry x="30" width="150" height="40" as="geometry" />
        </mxCell>
        <mxCell id="aKX1gy-J0APryohUUYob-30" value="" style="shape=partialRectangle;collapsible=0;dropTarget=0;pointerEvents=0;fillColor=none;top=0;left=0;bottom=0;right=0;points=[[0,0.5],[1,0.5]];portConstraint=eastwest;" vertex="1" parent="aKX1gy-J0APryohUUYob-26">
          <mxGeometry y="70" width="180" height="30" as="geometry" />
        </mxCell>
        <mxCell id="aKX1gy-J0APryohUUYob-31" value="" style="shape=partialRectangle;connectable=0;fillColor=none;top=0;left=0;bottom=0;right=0;editable=1;overflow=hidden;" vertex="1" parent="aKX1gy-J0APryohUUYob-30">
          <mxGeometry width="30" height="30" as="geometry" />
        </mxCell>
        <mxCell id="aKX1gy-J0APryohUUYob-32" value="Row 1" style="shape=partialRectangle;connectable=0;fillColor=none;top=0;left=0;bottom=0;right=0;align=left;spacingLeft=6;overflow=hidden;" vertex="1" parent="aKX1gy-J0APryohUUYob-30">
          <mxGeometry x="30" width="150" height="30" as="geometry" />
        </mxCell>
        <mxCell id="aKX1gy-J0APryohUUYob-33" value="" style="shape=partialRectangle;collapsible=0;dropTarget=0;pointerEvents=0;fillColor=none;top=0;left=0;bottom=0;right=0;points=[[0,0.5],[1,0.5]];portConstraint=eastwest;" vertex="1" parent="aKX1gy-J0APryohUUYob-26">
          <mxGeometry y="100" width="180" height="30" as="geometry" />
        </mxCell>
        <mxCell id="aKX1gy-J0APryohUUYob-34" value="" style="shape=partialRectangle;connectable=0;fillColor=none;top=0;left=0;bottom=0;right=0;editable=1;overflow=hidden;" vertex="1" parent="aKX1gy-J0APryohUUYob-33">
          <mxGeometry width="30" height="30" as="geometry" />
        </mxCell>
        <mxCell id="aKX1gy-J0APryohUUYob-35" value="Row 2" style="shape=partialRectangle;connectable=0;fillColor=none;top=0;left=0;bottom=0;right=0;align=left;spacingLeft=6;overflow=hidden;" vertex="1" parent="aKX1gy-J0APryohUUYob-33">
          <mxGeometry x="30" width="150" height="30" as="geometry" />
        </mxCell>
        <mxCell id="aKX1gy-J0APryohUUYob-36" value="" style="shape=partialRectangle;collapsible=0;dropTarget=0;pointerEvents=0;fillColor=none;top=0;left=0;bottom=0;right=0;points=[[0,0.5],[1,0.5]];portConstraint=eastwest;" vertex="1" parent="aKX1gy-J0APryohUUYob-26">
          <mxGeometry y="130" width="180" height="30" as="geometry" />
        </mxCell>
        <mxCell id="aKX1gy-J0APryohUUYob-37" value="" style="shape=partialRectangle;connectable=0;fillColor=none;top=0;left=0;bottom=0;right=0;editable=1;overflow=hidden;" vertex="1" parent="aKX1gy-J0APryohUUYob-36">
          <mxGeometry width="30" height="30" as="geometry" />
        </mxCell>
        <mxCell id="aKX1gy-J0APryohUUYob-38" value="Row 3" style="shape=partialRectangle;connectable=0;fillColor=none;top=0;left=0;bottom=0;right=0;align=left;spacingLeft=6;overflow=hidden;" vertex="1" parent="aKX1gy-J0APryohUUYob-36">
          <mxGeometry x="30" width="150" height="30" as="geometry" />
        </mxCell>
        <mxCell id="aKX1gy-J0APryohUUYob-39" value="Core_Response_TBL" style="shape=table;startSize=30;container=1;collapsible=1;childLayout=tableLayout;fixedRows=1;rowLines=0;fontStyle=1;align=center;resizeLast=1;" vertex="1" parent="spAhNgwJLfB4B6tivdcX-1">
          <mxGeometry x="100" y="410" width="180" height="160" as="geometry" />
        </mxCell>
        <mxCell id="aKX1gy-J0APryohUUYob-40" value="" style="shape=partialRectangle;collapsible=0;dropTarget=0;pointerEvents=0;fillColor=none;top=0;left=0;bottom=1;right=0;points=[[0,0.5],[1,0.5]];portConstraint=eastwest;" vertex="1" parent="aKX1gy-J0APryohUUYob-39">
          <mxGeometry y="30" width="180" height="30" as="geometry" />
        </mxCell>
        <mxCell id="aKX1gy-J0APryohUUYob-41" value="PK" style="shape=partialRectangle;connectable=0;fillColor=none;top=0;left=0;bottom=0;right=0;fontStyle=1;overflow=hidden;" vertex="1" parent="aKX1gy-J0APryohUUYob-40">
          <mxGeometry width="30" height="30" as="geometry" />
        </mxCell>
        <mxCell id="aKX1gy-J0APryohUUYob-42" value="UniqueID" style="shape=partialRectangle;connectable=0;fillColor=none;top=0;left=0;bottom=0;right=0;align=left;spacingLeft=6;fontStyle=5;overflow=hidden;" vertex="1" parent="aKX1gy-J0APryohUUYob-40">
          <mxGeometry x="30" width="150" height="30" as="geometry" />
        </mxCell>
        <mxCell id="aKX1gy-J0APryohUUYob-43" value="" style="shape=partialRectangle;collapsible=0;dropTarget=0;pointerEvents=0;fillColor=none;top=0;left=0;bottom=0;right=0;points=[[0,0.5],[1,0.5]];portConstraint=eastwest;" vertex="1" parent="aKX1gy-J0APryohUUYob-39">
          <mxGeometry y="60" width="180" height="30" as="geometry" />
        </mxCell>
        <mxCell id="aKX1gy-J0APryohUUYob-44" value="" style="shape=partialRectangle;connectable=0;fillColor=none;top=0;left=0;bottom=0;right=0;editable=1;overflow=hidden;" vertex="1" parent="aKX1gy-J0APryohUUYob-43">
          <mxGeometry width="30" height="30" as="geometry" />
        </mxCell>
        <mxCell id="aKX1gy-J0APryohUUYob-45" value="Row 1" style="shape=partialRectangle;connectable=0;fillColor=none;top=0;left=0;bottom=0;right=0;align=left;spacingLeft=6;overflow=hidden;" vertex="1" parent="aKX1gy-J0APryohUUYob-43">
          <mxGeometry x="30" width="150" height="30" as="geometry" />
        </mxCell>
        <mxCell id="aKX1gy-J0APryohUUYob-46" value="" style="shape=partialRectangle;collapsible=0;dropTarget=0;pointerEvents=0;fillColor=none;top=0;left=0;bottom=0;right=0;points=[[0,0.5],[1,0.5]];portConstraint=eastwest;" vertex="1" parent="aKX1gy-J0APryohUUYob-39">
          <mxGeometry y="90" width="180" height="30" as="geometry" />
        </mxCell>
        <mxCell id="aKX1gy-J0APryohUUYob-47" value="" style="shape=partialRectangle;connectable=0;fillColor=none;top=0;left=0;bottom=0;right=0;editable=1;overflow=hidden;" vertex="1" parent="aKX1gy-J0APryohUUYob-46">
          <mxGeometry width="30" height="30" as="geometry" />
        </mxCell>
        <mxCell id="aKX1gy-J0APryohUUYob-48" value="Row 2" style="shape=partialRectangle;connectable=0;fillColor=none;top=0;left=0;bottom=0;right=0;align=left;spacingLeft=6;overflow=hidden;" vertex="1" parent="aKX1gy-J0APryohUUYob-46">
          <mxGeometry x="30" width="150" height="30" as="geometry" />
        </mxCell>
        <mxCell id="aKX1gy-J0APryohUUYob-49" value="" style="shape=partialRectangle;collapsible=0;dropTarget=0;pointerEvents=0;fillColor=none;top=0;left=0;bottom=0;right=0;points=[[0,0.5],[1,0.5]];portConstraint=eastwest;" vertex="1" parent="aKX1gy-J0APryohUUYob-39">
          <mxGeometry y="120" width="180" height="30" as="geometry" />
        </mxCell>
        <mxCell id="aKX1gy-J0APryohUUYob-50" value="" style="shape=partialRectangle;connectable=0;fillColor=none;top=0;left=0;bottom=0;right=0;editable=1;overflow=hidden;" vertex="1" parent="aKX1gy-J0APryohUUYob-49">
          <mxGeometry width="30" height="30" as="geometry" />
        </mxCell>
        <mxCell id="aKX1gy-J0APryohUUYob-51" value="Row 3" style="shape=partialRectangle;connectable=0;fillColor=none;top=0;left=0;bottom=0;right=0;align=left;spacingLeft=6;overflow=hidden;" vertex="1" parent="aKX1gy-J0APryohUUYob-49">
          <mxGeometry x="30" width="150" height="30" as="geometry" />
        </mxCell>
      </root>
    </mxGraphModel>
  </diagram>
</mxfile>
